<?xml version="1.0" encoding="UTF-8"?><svg id="c" xmlns="http://www.w3.org/2000/svg" viewBox="0 0 72.64 68.38"><path d="M5.34,7.45h5.32v2.73h0v.03h0v.03h0s0,.03,0,.03h0v.03h0v.02h0v.03h0v.03h0v.03h0s0,.02,0,.02h0s0,.03,0,.03h0v.02h0v.02h0v.02h0s0,.02,0,.02h0s0,.02,0,.02h0s0,.02,0,.02h0v.02h0s0,.02,0,.02h0s0,.02,0,.02h0s0,.02,0,.02h0v.02h0s0,.02,0,.02h0s0,.02,0,.02h0s0,.02,0,.02h0v.02h0s0,.02,0,.02h0v.02h0s0,.02,0,.02h0v.02h0s0,.02,0,.02h0s0,.02,0,.02h0s0,.01,0,.01h0s0,.02,0,.02h0s0,.01,0,.01h0s0,.02,0,.02h0s0,.01,0,.01h0s0,.02,0,.02h0s0,.01,0,.01h0s0,.02,0,.02h0c.15.52.45.99.84,1.36h0c.59.56,1.41.9,2.3.9s1.71-.34,2.3-.9h0c.39-.37.69-.84.84-1.36h0s0-.02,0-.02h0s0-.02,0-.02h0s0-.02,0-.02h0s0-.01,0-.01h0s0-.02,0-.02h0s0-.01,0-.01h0s0-.03,0-.03h0s0-.01,0-.01h0s0-.02,0-.02h0s0-.01,0-.01h0s0-.02,0-.02h0s0-.01,0-.01h0s0-.03,0-.03h0s0-.01,0-.01h0s0-.02,0-.02h0s0-.01,0-.01h0s0-.03,0-.03h0s0-.02,0-.02h0v-.02h0s0-.02,0-.02h0v-.02h0s0-.02,0-.02h0v-.02h0s0-.02,0-.02h0s0-.02,0-.02h0v-.02h0v-.02h0s0-.02,0-.02h0s0-.02,0-.02h0s0-.03,0-.03h0v-.03h0s0-.02,0-.02h0v-.03h0s0-.02,0-.02h0v-.03h0v-.03h0v-.03h0v-2.76h24.02v2.73h0v.03h0v.03h0v.03h0s0,.03,0,.03h0v.02h0v.03h0v.03h0s0,.03,0,.03h0s0,.02,0,.02h0v.03h0v.02h0s0,.02,0,.02h0v.02h0v.02h0v.02h0v.02h0v.02h0v.02h0v.02h0v.02h0s0,.02,0,.02h0s0,.02,0,.02h0v.02h0v.02h0s0,.02,0,.02h0s0,.02,0,.02h0s0,.02,0,.02h0s0,.02,0,.02h0s0,.02,0,.02h0s0,.02,0,.02h0s0,.02,0,.02h0s0,.01,0,.01h0s0,.02,0,.02h0s0,.01,0,.01h0s0,.02,0,.02h0s0,.01,0,.01h0s0,.02,0,.02h0s0,.01,0,.01h0s0,.02,0,.02h0c.15.52.45.99.84,1.36h0c.59.56,1.41.9,2.3.9s1.71-.34,2.3-.9h0c.4-.37.69-.84.84-1.36h0s0-.02,0-.02h0s0-.01,0-.01h0s0-.02,0-.02h0s0-.02,0-.02h0s0-.02,0-.02h0s0-.01,0-.01h0s0-.03,0-.03h0s0-.02,0-.02h0s0-.02,0-.02h0s0-.02,0-.02h0s0-.01,0-.01h0v-.03h0s0-.02,0-.02h0s0-.02,0-.02h0s0-.02,0-.02h0v-.02h0v-.02h0v-.02h0s0-.02,0-.02h0s0-.02,0-.02h0s0-.02,0-.02h0s0-.02,0-.02h0v-.02h0v-.02h0v-.02h0v-.02h0v-.02h0v-.02h0s0-.03,0-.03h0s0-.03,0-.03h0v-.02h0s0-.01,0-.01h0v-.02h0v-.03h0v-.04h0v-.03h0v-2.76h5.32c1.47,0,2.81.56,3.77,1.47.97.91,1.57,2.16,1.57,3.54v20.54h-3.76v-13.52H3.76v30.06c0,.41.18.77.47,1.05.29.27.68.44,1.11.44h31.3v3.53H5.34c-1.47,0-2.8-.56-3.77-1.47-.97-.91-1.57-2.16-1.57-3.54V12.46c0-1.38.6-2.64,1.57-3.54.97-.91,2.3-1.47,3.77-1.47h0ZM46.1,11.72,42.82.64,42.14,7.45v2.73c0,.28.06.55.16.8.12.28.3.53.52.74.42.39,1,.64,1.64.64s1.22-.25,1.64-.64c.22-.21.4-.46.52-.74.1-.25.16-.52.16-.8V2.18c0-.6-.26-1.14-.68-1.54-.42-.39-1-.64-1.64-.64s-1.22.25-1.64.64c-.42.4-.68.94-.68,1.54v5.27ZM15.56,11.72,12.28.64,11.6,7.45v2.73c0,.28.06.55.16.8.12.28.3.53.52.74.42.39,1,.64,1.64.64s1.22-.25,1.64-.64c.22-.21.4-.46.52-.74.11-.25.16-.52.16-.8V2.18c0-.6-.26-1.14-.68-1.54-.42-.39-1-.64-1.64-.64s-1.22.25-1.64.64c-.42.4-.68.94-.68,1.54v5.27ZM54.62,43.39c0-.97.84-1.77,1.88-1.77s1.88.79,1.88,1.77v6.15h4.46c1.04,0,1.88.79,1.88,1.77s-.84,1.77-1.88,1.77h-6.34c-1.04,0-1.88-.79-1.88-1.77v-7.91ZM56.5,36.14c4.46,0,8.49,1.7,11.41,4.44,2.92,2.74,4.73,6.54,4.73,10.72s-1.81,7.98-4.73,10.72c-2.92,2.74-6.96,4.44-11.41,4.44s-8.49-1.7-11.41-4.44c-2.92-2.74-4.73-6.53-4.73-10.72s1.81-7.98,4.73-10.72c2.92-2.74,6.95-4.44,11.41-4.44h0ZM65.26,43.08c-2.24-2.1-5.33-3.41-8.75-3.41s-6.52,1.3-8.76,3.41c-2.24,2.1-3.63,5.01-3.63,8.22s1.39,6.12,3.63,8.22c2.24,2.11,5.34,3.41,8.76,3.41s6.51-1.3,8.75-3.41c2.24-2.1,3.63-5.01,3.63-8.22s-1.39-6.12-3.63-8.22h0ZM24.66,37.53h9.58v9h-9.58v-9ZM9.63,37.53h9.58v9h-9.58v-9ZM39.68,23.97h9.58v9h-9.58v-9ZM24.66,23.97h9.58v9h-9.58v-9ZM9.63,23.97h9.58v9h-9.58v-9Z"/></svg>