<?xml version="1.0" encoding="UTF-8"?><svg id="a" xmlns="http://www.w3.org/2000/svg" viewBox="0 0 107.05 52.57"><path d="M37.43,1.68c.01-.07-4.1.32-4.3-.41C33.01,0,36.72,0,36.72,0c.16,0,.33,0,.5,0h21.43c-.43.06-11.94,1.12-6.16,2.52h-.04c1.15.37,2.3.8,3.43,1.25-.04-.02-.06-.04-.06-.04h18.45s-12.92,1.68-12.76,2.66c1.79.95,3.55,2.02,5.27,3.16h31.21s-25.28,2.32-23.7,5.81h0c1.16,1.04,2.29,2.14,3.39,3.27h29.38s-21.37,3.5-23.57,6.78c5.96,7.9,10.37,17.17,12.46,27.12h-1.52C88.45,24.29,63.26,1.67,37.43,1.68Z" fill="#1c1c1c"/><path d="M92.02,51.44h-9.61c-.69-2.78-1.62-5.49-2.76-8.08l8.81-2.65c1.5,3.44,2.7,7.03,3.56,10.73Z" fill="#1c1c1c"/><path d="M87.77,39.19l-8.81,2.65c-1.33-2.78-2.92-5.42-4.7-7.9l7.42-5.16c2.33,3.25,4.38,6.74,6.08,10.41Z" fill="#1c1c1c"/><path d="M80.7,27.42l-7.44,5.17c-1.86-2.42-3.93-4.67-6.15-6.69l5.4-7.47c2.97,2.71,5.72,5.73,8.18,8.99Z" fill="#1c1c1c"/><path d="M61.71,10.53c3.36,1.92,6.57,4.21,9.57,6.8l-5.41,7.48c-2.28-1.94-4.7-3.66-7.23-5.11l3.07-9.17Z" fill="#1c1c1c"/><path d="M57.25,18.93c-2.51-1.33-5.11-2.39-7.78-3.17l.61-10.21c3.51,1.02,6.95,2.43,10.25,4.2l-3.07,9.18Z" fill="#1c1c1c"/><path d="M48,15.37c-2.59-.64-5.22-1.01-7.87-1.06l-1.94-10.57c3.5.06,6.99.55,10.42,1.42l-.61,10.21Z" fill="#1c1c1c"/><path d="M18.48,7.84c-.04-.12-.1-.33-.07-.31.84.39,2.73,3.16,2.76,3.17,0,0,2.53,3.45,6.01,8.23h12.28s-8.59.79-10.8,2.03c1.66,2.28,3.46,4.77,5.29,7.29h17.06s-15.27,1.4-14.52,3.52c1.45,2,2.85,3.96,4.16,5.78h20.86s-18.69,1.71-17.52,4.3l2.8,4.42h11.42s-10.77.99-10.1,2.48c0,0-.01,0-.02-.01,1.08,3.42-1.65,5.68-4.5,1.81-3.58-5.5-24.65-40.85-25.12-42.71Z" fill="#1c1c1c"/><path d="M.11,40.73l9.78,2.64c-.19,2.6-.12,5.31.22,8.09H.5C0,47.77-.12,44.18.11,40.73Z" fill="#1c1c1c"/><path d="M.24,39.22c.36-3.67,1.12-7.16,2.25-10.42l9.32,5.15c-.87,2.48-1.48,5.13-1.78,7.9L.24,39.22Z" fill="#1c1c1c"/><path d="M7.85,18.45l8.16,7.47c-1.47,2.02-2.72,4.27-3.69,6.69l-9.33-5.16c1.26-3.27,2.89-6.29,4.86-9Z" fill="#1c1c1c"/><path d="M15.74,10.54l6.45,9.17c-2,1.45-3.78,3.17-5.35,5.11l-8.16-7.48c2.04-2.6,4.41-4.89,7.06-6.81Z" fill="#1c1c1c"/><path d="M27.3,16.78c-4.87-6.61-4.1-5.76-6.76-9.15,1.6-.8,3.26-1.5,5-2.07l4.37,10.21c-.89.29-1.76.64-2.6,1.01Z" fill="#1c1c1c"/><path d="M38.7,14.31c-2.62.05-5.12.42-7.47,1.07l-4.37-10.21c3.1-.88,6.41-1.37,9.89-1.43l1.95,10.57Z" fill="#1c1c1c"/></svg>