<?xml version="1.0" encoding="UTF-8"?><svg id="b" xmlns="http://www.w3.org/2000/svg" viewBox="0 0 92.31 71.59"><g id="c"><path d="M85.1,18.44l-4.01,2.12c-1.04.55-2.14.97-3.29,1.27-1.22.31-2.51.47-3.81.47h-1.99c-1.78,0-3.5-.3-5.13-.88l-4.91-1.73c-.44-.15-.93-.12-1.33.08l-9.27,4.72c-1.42.73-3.37.27-4.19-.99-.61-.94-.54-2.12.24-3,.24-.28.54-.51.89-.69l13.25-6.75-1.53-2.35-1.5.77h-19.85l11.94-6.07c4.28-2.19,9.12-3.08,14.02-2.61l19.56,1.92c.15.03.31.01.47-.01l7.65-1.35-.61-2.65-7.41,1.31L64.96.15c-5.54-.55-11.03.46-15.88,2.93l-16.53,8.42h-14c-1.68,0-3.06,1.21-3.06,2.7v27c0,1.48,1.38,2.7,3.06,2.7h58.15c1.68,0,3.06-1.21,3.06-2.7v-17.13c.99-.32,1.97-.7,2.89-1.19l3.66-1.93h5.69v-2.7h-6.12c-.28,0-.55.07-.78.19ZM49.83,27.56c1.07,0,2.13-.24,3.06-.72l2.07-1.05c.2.61.32,1.24.32,1.9,0,3.73-3.43,6.75-7.65,6.75s-7.65-3.02-7.65-6.75c0-2.46,1.47-4.62,3.73-5.79-.06,1.01.21,2.04.81,2.96,1.12,1.69,3.09,2.7,5.31,2.7ZM18.55,14.2h7.51c-.64,3.39-3.67,6.06-7.51,6.63v-6.63ZM18.55,41.19v-6.63c3.84.57,6.87,3.24,7.51,6.63h-7.51ZM76.7,41.19h-7.51c.64-3.39,3.67-6.06,7.51-6.63v6.63ZM76.7,31.84c-5.52.61-9.92,4.48-10.61,9.35H29.15c-.69-4.87-5.08-8.75-10.61-9.35v-8.29c5.52-.61,9.92-4.48,10.61-9.35h24.06l-6.44,3.29c-.54.27-.96.61-1.36.97-4.96.92-8.49,4.72-8.49,9.23,0,5.21,4.81,9.45,10.71,9.45s10.71-4.24,10.71-9.45c0-1.12-.24-2.24-.67-3.28l3.86-1.97,4.21,1.48c1.99.7,4.1,1.07,6.27,1.07h1.99c.92,0,1.82-.08,2.71-.22v7.06Z"/><path d="M69.05,57.89l-20.86,10.62c-3.99,2.02-8.43,3.08-12.98,3.08-.96,0-1.94-.05-2.91-.15l-19.39-1.89-12.55,1.32-.37-2.67,12.73-1.35c.11-.01.23-.01.35,0l19.56,1.92c4.9.47,9.75-.42,14.02-2.59l20.86-10.64c1.45-.74,1.96-2.39,1.12-3.68-.41-.62-1.07-1.07-1.85-1.26-.8-.19-1.62-.09-2.33.27l-16.33,8.31c-1.16.59-2.49.9-3.83.9h-16.08v-2.7h15.3c1.68,0,3.06-1.21,3.06-2.7s-1.38-2.7-3.06-2.7h-10.71c-.2,0-.4-.03-.57-.09l-4.93-1.74c-1.62-.57-3.35-.86-5.11-.86h-1.99c-2.49,0-4.94.59-7.09,1.73l-4.02,2.13c-.23.12-.51.19-.78.19H.18v-2.7h7.71l3.66-1.93c2.62-1.39,5.6-2.12,8.66-2.12h1.99c2.16,0,4.25.35,6.26,1.07l4.64,1.63h10.42c3.37,0,6.12,2.42,6.12,5.4,0,.22-.05.43-.08.65l13.36-6.8c1.41-.73,3.06-.92,4.64-.54,1.59.36,2.91,1.27,3.72,2.51,1.7,2.58.69,5.88-2.23,7.38Z"/><rect x="62.93" y="26.35" width="3.06" height="2.7"/><rect x="29.26" y="26.35" width="3.06" height="2.7"/></g></svg>