<?xml version="1.0" encoding="UTF-8"?><svg id="e" xmlns="http://www.w3.org/2000/svg" viewBox="0 0 68 57.18"><g id="f"><path d="M17,19.06H3.4c-.63,0-1.13-.43-1.13-.95s.51-.95,1.13-.95h13.6c.63,0,1.13.43,1.13.95s-.51.95-1.13.95Z"/><path d="M20.4,22.87H6.8c-.63,0-1.13-.43-1.13-.95s.51-.95,1.13-.95h13.6c.63,0,1.13.43,1.13.95s-.51.95-1.13.95Z"/><path d="M2.27,22.87h-1.13c-.63,0-1.13-.43-1.13-.95s.51-.95,1.13-.95h1.13c.63,0,1.13.43,1.13.95s-.51.95-1.13.95Z"/><path d="M7.93,11.44h-1.13c-.63,0-1.13-.43-1.13-.95s.51-.95,1.13-.95h1.13c.63,0,1.13.43,1.13.95s-.51.95-1.13.95Z"/><path d="M13.6,13.34h-1.13c-.63,0-1.13.43-1.13.95s.51.95,1.13.95h1.13c.63,0,1.13-.43,1.13-.95s-.51-.95-1.13-.95Z"/><path d="M19.27,11.44c.63,0,1.13-.43,1.13-.95s-.51-.95-1.13-.95h-7.93c-.63,0-1.13.43-1.13.95s.51.95,1.13.95h7.93Z"/><path d="M66.87,0H23.8c-.63,0-1.13.43-1.13.95v4.76h-3.4c-.63,0-1.13.43-1.13.95s.51.95,1.13.95h3.4v5.72h-4.53c-.63,0-1.13.43-1.13.95s.51.95,1.13.95h4.53v10.48c0,.53.51.95,1.13.95h43.07c.63,0,1.13-.43,1.13-.95V.95c0-.53-.51-.95-1.13-.95ZM63.9,1.91l-17.81,13.4c-.43.32-1.08.32-1.51,0L26.77,1.91h37.14ZM24.93,15.25h3.4c.63,0,1.13-.43,1.13-.95s-.51-.95-1.13-.95h-3.4V3.08l13.63,10.26-13.63,10.26v-8.35ZM26.77,24.78l13.5-10.16,2.8,2.11c.65.49,1.46.73,2.27.73s1.62-.24,2.27-.73l2.8-2.11,13.5,10.16H26.77ZM65.74,23.6l-13.63-10.26,13.63-10.26v20.51Z"/><path d="M13.6,7.62h1.13c.63,0,1.13-.43,1.13-.95s-.51-.95-1.13-.95h-1.13c-.63,0-1.13.43-1.13.95s.51.95,1.13.95Z"/><path d="M55.54,45.74h-1.13c-.63,0-1.13-.43-1.13-.95s.51-.95,1.13-.95h1.13c.63,0,1.13.43,1.13.95s-.51.95-1.13.95Z"/><path d="M49.87,49.55h-1.13c-.63,0-1.13-.43-1.13-.95s.51-.95,1.13-.95h1.13c.63,0,1.13.43,1.13.95s-.51.95-1.13.95Z"/><path d="M63.47,49.55h-9.07c-.63,0-1.13-.43-1.13-.95s.51-.95,1.13-.95h9.07c.63,0,1.13.43,1.13.95s-.51.95-1.13.95Z"/><path d="M61.2,53.37h-13.6c-.63,0-1.13-.43-1.13-.95s.51-.95,1.13-.95h13.6c.63,0,1.13.43,1.13.95s-.51.95-1.13.95Z"/><path d="M66.87,53.37h-1.13c-.63,0-1.13-.43-1.13-.95s.51-.95,1.13-.95h1.13c.63,0,1.13.43,1.13.95s-.51.95-1.13.95Z"/><path d="M61.2,41.93h-1.13c-.63,0-1.13-.43-1.13-.95s.51-.95,1.13-.95h1.13c.63,0,1.13.43,1.13.95s-.51.95-1.13.95Z"/><path d="M49.87,43.84h-4.53v-5.72h3.4c.63,0,1.13-.43,1.13-.95s-.51-.95-1.13-.95h-3.4v-4.76c0-.53-.51-.95-1.13-.95H1.13c-.63,0-1.13.43-1.13.95v24.78c0,.53.51.95,1.13.95h43.07c.63,0,1.13-.43,1.13-.95v-10.48h4.53c.63,0,1.13-.43,1.13-.95s-.51-.95-1.13-.95ZM41.24,32.4l-17.81,13.4c-.43.32-1.08.32-1.51,0l-17.81-13.4h37.14ZM2.27,33.58l13.63,10.26-13.63,10.26v-20.51ZM4.1,55.27l13.5-10.16,2.8,2.11c.65.49,1.46.73,2.27.73s1.62-.24,2.27-.73l2.8-2.11,13.5,10.16H4.1ZM43.07,54.09l-13.63-10.26,13.63-10.26v10.26h-3.4c-.63,0-1.13.43-1.13.95s.51.95,1.13.95h3.4v8.35Z"/><path d="M56.67,40.02h-7.93c-.63,0-1.13.43-1.13.95s.51.95,1.13.95h7.93c.63,0,1.13-.43,1.13-.95s-.51-.95-1.13-.95Z"/><path d="M53.27,38.12h1.13c.63,0,1.13-.43,1.13-.95s-.51-.95-1.13-.95h-1.13c-.63,0-1.13.43-1.13.95s.51.95,1.13.95Z"/></g></svg>