<?xml version="1.0" encoding="UTF-8"?><svg id="d" xmlns="http://www.w3.org/2000/svg" viewBox="0 0 93.39 66.56"><path d="M1.99,10.9l37.1,10.77c.65.17,1.07.81,1.07,1.49h.02v41.85c0,.85-.67,1.55-1.49,1.55-.19,0-.36-.02-.5-.09L1.09,55.7c-.65-.2-1.09-.81-1.09-1.49h0V12.35c0-.85.67-1.53,1.49-1.53.17,0,.34.02.5.09h0ZM37.23,24.32L2.96,14.38v38.68l34.27,9.94V24.32Z"/><path d="M77.39,28.69c0,.85-.67,1.55-1.49,1.55s-1.47-.7-1.47-1.55v-14.31l-34.25,9.94v38.68l26.76-7.78c.8-.22,1.62.26,1.83,1.07.21.83-.25,1.68-1.03,1.9l-28.54,8.28c-.15.07-.31.09-.5.09-.82,0-1.47-.7-1.47-1.55V23.16h0c0-.68.42-1.31,1.07-1.49l37.1-10.77c.17-.07.34-.09.5-.09.82,0,1.49.68,1.49,1.53v16.35Z"/><path d="M6.99,12.35l31.71,9.22,31.73-9.22L38.7,3.13,6.99,12.35ZM38.3,24.63L1.09,13.83c-.48-.13-.88-.52-1.03-1.07-.21-.81.23-1.66,1.03-1.88L38.3.07c.25-.09.52-.09.8,0l37.21,10.82c.48.13.88.52,1.03,1.07.23.81-.23,1.66-1.03,1.88l-37.21,10.8c-.25.09-.52.09-.8,0h0Z"/><polygon points="23.52 18.75 13.28 15.78 50.49 4.96 60.73 7.93 23.52 18.75" fill-rule="evenodd"/><polygon points="13.28 15.78 23.52 18.75 23.52 42.99 18.4 37.35 13.28 40.01 13.28 15.78" fill-rule="evenodd"/><path d="M80.37,28.72c.08.33.17.66.23.98.44,1.95.9,4,1.93,4.61l.04.04c1.07.57,2.96-.02,4.81-.57.29-.11.61-.2,1.09-.33.57-.17,1.15.04,1.51.48h0c.71.87,1.36,1.81,1.91,2.82.55.98,1.03,2.01,1.41,3.13.19.59.04,1.2-.38,1.62-.29.31-.55.55-.78.79-1.41,1.36-2.88,2.77-2.88,4.04s1.47,2.71,2.85,4.09c.27.26.55.52.84.83.42.44.52,1.07.34,1.62h.02c-.38,1.07-.84,2.12-1.41,3.13-.55,1.01-1.2,1.94-1.89,2.82-.4.48-1.01.66-1.53.48-.06-.02-.57-.17-1.05-.33-1.85-.57-3.76-1.18-4.81-.57l-.04.04c-1.01.66-1.47,2.67-1.93,4.59-.08.39-.17.76-.27,1.16-.15.61-.65,1.05-1.22,1.14-.52.11-1.05.17-1.59.22-.61.07-1.15.09-1.68.09s-1.09-.02-1.64-.07c-.55-.07-1.09-.13-1.62-.24-.63-.11-1.11-.63-1.22-1.25-.06-.35-.15-.68-.21-1.01-.44-1.95-.9-3.98-1.93-4.61-1.03-.61-2.98-.02-4.85.55-.29.09-.61.18-1.09.33-.57.15-1.15-.04-1.51-.5h0c-.71-.85-1.36-1.81-1.91-2.8-.55-.98-1.03-2.03-1.41-3.13-.19-.59-.04-1.22.38-1.64.29-.28.52-.52.78-.76,1.41-1.38,2.87-2.8,2.87-4.04s-1.47-2.71-2.85-4.11c-.27-.26-.55-.52-.84-.83-.42-.41-.52-1.05-.36-1.6h0c.38-1.07.84-2.12,1.41-3.13.55-1.03,1.2-1.97,1.89-2.82.4-.48,1.01-.66,1.53-.5.06.02.57.17,1.05.33,1.83.59,3.76,1.2,4.81.57h0c1.03-.61,1.51-2.67,1.97-4.63.08-.37.17-.76.27-1.16.15-.61.65-1.05,1.22-1.14.52-.09,1.05-.15,1.59-.22.61-.04,1.15-.09,1.66-.09.57,0,1.11.04,1.66.09.55.04,1.09.13,1.62.22.63.13,1.11.63,1.2,1.27h0ZM77.73,30.4v-.07l-.42-.04c-.46-.02-.92-.04-1.41-.04s-.99,0-1.41.04c-.15.02-.29.04-.44.04l-.02.13c-.61,2.6-1.24,5.29-3.38,6.58h0c-2.14,1.29-4.7.48-7.14-.28l-.04-.02c-.38.5-.71,1.05-1.03,1.6-.29.55-.57,1.12-.82,1.7l.1.09c1.85,1.86,3.78,3.76,3.78,6.34s-1.95,4.48-3.82,6.29l-.04.04c.25.57.52,1.14.82,1.68.31.57.65,1.09,1.03,1.6l.13-.02c2.46-.76,4.99-1.53,7.13-.26,2.16,1.31,2.77,4.02,3.34,6.6v.04l.42.04c.46.04.92.07,1.39.07.52,0,1.01-.02,1.43-.07.15,0,.29-.02.44-.04l.02-.13c.61-2.54,1.22-5.2,3.27-6.51l.11-.07c2.14-1.29,4.7-.48,7.13.31l.04.02c.38-.52.71-1.05,1.03-1.6.29-.55.57-1.11.82-1.73l-.1-.09c-1.85-1.84-3.78-3.76-3.78-6.32s1.95-4.48,3.82-6.29l.04-.04c-.25-.59-.52-1.14-.84-1.7-.29-.55-.63-1.09-1.01-1.6l-.13.04c-2.41.74-4.93,1.51-7.05.31l-.11-.07c-2.14-1.29-2.75-4-3.32-6.58h0ZM75.9,37.74c2.31,0,4.36.98,5.88,2.54,1.51,1.57,2.43,3.74,2.43,6.12s-.92,4.55-2.43,6.1c-1.51,1.57-3.57,2.54-5.88,2.54s-4.36-.96-5.85-2.54c-1.51-1.55-2.43-3.71-2.43-6.1s.92-4.55,2.43-6.12c1.49-1.55,3.57-2.54,5.85-2.54h0ZM79.68,42.46c-.97-1.01-2.29-1.64-3.78-1.64s-2.79.63-3.76,1.64c-.97,1-1.57,2.4-1.57,3.93s.61,2.93,1.57,3.93c.97,1.01,2.29,1.62,3.76,1.62s2.81-.61,3.78-1.62c.97-1.01,1.57-2.4,1.57-3.93s-.61-2.93-1.57-3.93h0Z"/></svg>