<?xml version="1.0" encoding="UTF-8"?><svg id="Layer_1" xmlns="http://www.w3.org/2000/svg" viewBox="0 0 512 512"><path d="m429.505,358.979l20.028,20.166c.938.945,2.224,1.477,3.556,1.477,2.148,0,4.057-1.372,4.74-3.409,7.417-22.09,1.796-46.042-14.671-62.509-17.054-17.054-42.821-22.363-65.119-13.723l-18.137-18.136c4.016-4.228,6.237-9.73,6.237-15.582,0-6.054-2.357-11.745-6.638-16.026-3.542-3.541-8.055-5.741-12.934-6.404,4.51-8.557,3.172-19.415-4.018-26.605-3.405-3.405-7.635-5.483-12.052-6.264,6.51-8.862,5.787-21.412-2.223-29.422-4.851-4.85-11.37-7.02-17.727-6.546,1-6.848-1.103-14.067-6.361-19.326-8.836-8.836-23.215-8.836-32.051,0l-19.205,19.205-46.375-46.375c8.641-22.298,3.331-48.065-13.724-65.12-16.436-16.435-40.35-22.068-62.418-14.7-1.643.549-2.885,1.909-3.282,3.595s.105,3.458,1.331,4.683l20.78,20.78-4.658,23.226-24.241,4.284-20.028-20.166c-.938-.945-2.224-1.477-3.556-1.477-2.148,0-4.057,1.372-4.74,3.409-7.417,22.09-1.796,46.042,14.671,62.509,17.055,17.054,42.824,22.364,65.119,13.723l6.229,6.228-38.833,38.832c-6.696,6.697-10.385,15.602-10.385,25.073v13.2c0,17.734-6.327,34.487-17.884,47.718l-3.101-3.101c-3.327-3.327-7.751-5.16-12.457-5.16s-9.13,1.833-12.456,5.16l-26.766,26.765c-6.868,6.869-6.868,18.045,0,24.914l116.425,116.425c3.327,3.327,7.751,5.16,12.457,5.16s9.13-1.833,12.456-5.16l26.766-26.765c6.867-6.869,6.867-18.044,0-24.913,0,0,0,0,0,0l-6.09-6.09,9.996-4.813c21.628-10.413,41.202-24.3,58.177-41.274l38.832-38.833,18.115,18.116c-8.641,22.298-3.331,48.065,13.724,65.12,11.661,11.661,27.087,17.884,42.947,17.884,6.493,0,13.061-1.043,19.471-3.184,1.643-.549,2.885-1.909,3.282-3.595s-.105-3.458-1.331-4.683l-20.78-20.78,4.658-23.226,24.241-4.284Zm-252.999-204.181c-1.475-1.475-3.711-1.88-5.61-1.013-19.224,8.769-42.183,4.615-57.133-10.333-11.739-11.74-16.884-28.036-14.295-44.034l15.625,15.732c1.154,1.162,2.799,1.685,4.418,1.4l30.178-5.333c2.027-.358,3.628-1.922,4.032-3.94l5.855-29.197c.329-1.64-.184-3.336-1.367-4.519l-16.413-16.413c15.977-2.562,32.249,2.586,43.968,14.304,14.949,14.95,19.102,37.909,10.333,57.132-.866,1.898-.462,4.135,1.014,5.611l48.751,48.751-20.604,20.604-48.752-48.751Zm40.687,271.667l-26.766,26.765c-1.438,1.438-3.351,2.23-5.385,2.23s-3.947-.792-5.387-2.231l-116.425-116.425c-2.969-2.97-2.969-7.802,0-10.771l26.766-26.765c1.438-1.438,3.351-2.23,5.385-2.23s3.947.792,5.387,2.231l116.424,116.424c2.97,2.97,2.97,7.802,0,10.772Zm62.083-77.092c-16.178,16.177-34.832,29.412-55.444,39.336l-13.149,6.332-92.655-92.655c13.438-15.132,20.796-34.4,20.796-54.806v-13.2c0-6.8,2.648-13.194,7.456-18.002l38.833-38.832,33.075,33.075c-.888.879-2.595,2.628-3.501,3.445-10.214,9.366-25.802,11.52-38.79,5.362l-.532-.252c-2.49-1.183-5.477-.121-6.66,2.375-1.184,2.495-.12,5.477,2.375,6.66l.532.253c16.885,8.006,36.444,5.249,49.833-7.026.558-.511,1.105-1.036,1.645-1.575l56.12-56.121c4.938-4.937,12.973-4.938,17.909,0,4.938,4.938,4.938,12.971,0,17.909l-42.823,42.823c-1.953,1.953-1.953,5.119,0,7.071,1.914,1.921,5.156,1.921,7.07,0l41.945-41.945c4.941-4.922,12.964-4.92,17.895.013,4.938,4.938,4.938,12.972,0,17.91l-41.931,41.931c-1.953,1.953-1.953,5.119,0,7.071,1.914,1.921,5.156,1.921,7.07,0l31.233-31.233c4.939-4.928,12.967-4.926,17.9.007,4.938,4.938,4.938,12.972,0,17.909l-31.226,31.225c-1.953,1.953-1.953,5.119,0,7.071.976.976,2.256,1.464,3.535,1.464s2.56-.488,3.535-1.464l23.197-23.196c2.391-2.392,5.571-3.709,8.954-3.709s6.562,1.317,8.954,3.709c2.392,2.392,3.709,5.572,3.709,8.955s-1.317,6.562-3.709,8.954l-73.155,73.156Zm112.366,42.294l16.413,16.413c-15.983,2.561-32.249-2.586-43.968-14.304-14.949-14.95-19.102-37.909-10.333-57.132.866-1.898.462-4.135-1.014-5.611l-20.492-20.492,20.604-20.604,20.492,20.492c1.475,1.476,3.711,1.879,5.61,1.013,19.222-8.769,42.182-4.617,57.133,10.333,11.739,11.74,16.884,28.036,14.295,44.034l-15.625-15.732c-1.155-1.163-2.805-1.688-4.418-1.4l-30.178,5.333c-2.027.358-3.628,1.922-4.032,3.94l-5.855,29.197c-.329,1.64.184,3.336,1.367,4.519Z"/></svg>