<?xml version="1.0" encoding="iso-8859-1"?>
<!-- Generator: Adobe Illustrator 21.1.0, SVG Export Plug-In . SVG Version: 6.00 Build 0)  -->
<svg version="1.1" id="Layer_1_1_" xmlns="http://www.w3.org/2000/svg" xmlns:xlink="http://www.w3.org/1999/xlink" x="0px" y="0px"
	 viewBox="0 0 64 64" style="enable-background:new 0 0 64 64;" xml:space="preserve">
<g>
</g>
<path d="M57,10h-1V5c0-1.654-1.346-3-3-3h-2c-1.654,0-3,1.346-3,3v5H16V5c0-1.654-1.346-3-3-3h-2C9.346,2,8,3.346,8,5v5H7
	c-2.757,0-5,2.243-5,5v42c0,2.757,2.243,5,5,5h50c2.757,0,5-2.243,5-5V15C62,12.243,59.757,10,57,10z M50,5c0-0.552,0.448-1,1-1h2
	c0.552,0,1,0.448,1,1v6v4c0,0.552-0.448,1-1,1h-2c-0.552,0-1-0.448-1-1v-4V5z M10,5c0-0.552,0.448-1,1-1h2c0.552,0,1,0.448,1,1v6v4
	c0,0.552-0.448,1-1,1h-2c-0.552,0-1-0.448-1-1v-4V5z M7,12h1v3c0,1.654,1.346,3,3,3h2c1.654,0,3-1.346,3-3v-3h32v3
	c0,1.654,1.346,3,3,3h2c1.654,0,3-1.346,3-3v-3h1c1.654,0,3,1.346,3,3v11H4V15C4,13.346,5.346,12,7,12z M57,60H7
	c-1.654,0-3-1.346-3-3V28h56v29C60,58.654,58.654,60,57,60z"/>
<path d="M21,23h22c0.553,0,1-0.447,1-1v-6c0-0.553-0.447-1-1-1H21c-0.553,0-1,0.447-1,1v6C20,22.553,20.447,23,21,23z M22,17h20v4
	H22V17z"/>
<path d="M15,31H9c-0.553,0-1,0.447-1,1v5c0,0.553,0.447,1,1,1h6c0.553,0,1-0.447,1-1v-5C16,31.447,15.553,31,15,31z M14,36h-4v-3h4
	V36z"/>
<path d="M28,31h-6c-0.553,0-1,0.447-1,1v5c0,0.553,0.447,1,1,1h6c0.553,0,1-0.447,1-1v-5C29,31.447,28.553,31,28,31z M27,36h-4v-3h4
	V36z"/>
<path d="M36,38h6c0.553,0,1-0.447,1-1v-5c0-0.553-0.447-1-1-1h-6c-0.553,0-1,0.447-1,1v5C35,37.553,35.447,38,36,38z M37,33h4v3h-4
	V33z"/>
<path d="M55,31h-6c-0.553,0-1,0.447-1,1v5c0,0.553,0.447,1,1,1h6c0.553,0,1-0.447,1-1v-5C56,31.447,55.553,31,55,31z M54,36h-4v-3h4
	V36z"/>
<path d="M15,41H9c-0.553,0-1,0.447-1,1v5c0,0.553,0.447,1,1,1h6c0.553,0,1-0.447,1-1v-5C16,41.447,15.553,41,15,41z M14,46h-4v-3h4
	V46z"/>
<path d="M28,41h-6c-0.553,0-1,0.447-1,1v5c0,0.553,0.447,1,1,1h6c0.553,0,1-0.447,1-1v-5C29,41.447,28.553,41,28,41z M27,46h-4v-3h4
	V46z"/>
<path d="M36,48h6c0.553,0,1-0.447,1-1v-5c0-0.553-0.447-1-1-1h-6c-0.553,0-1,0.447-1,1v5C35,47.553,35.447,48,36,48z M37,43h4v3h-4
	V43z"/>
<path d="M55,41h-6c-0.553,0-1,0.447-1,1v5c0,0.553,0.447,1,1,1h6c0.553,0,1-0.447,1-1v-5C56,41.447,55.553,41,55,41z M54,46h-4v-3h4
	V46z"/>
<path d="M15,51H9c-0.553,0-1,0.447-1,1v5c0,0.553,0.447,1,1,1h6c0.553,0,1-0.447,1-1v-5C16,51.447,15.553,51,15,51z M14,56h-4v-3h4
	V56z"/>
<path d="M28,51h-6c-0.553,0-1,0.447-1,1v5c0,0.553,0.447,1,1,1h6c0.553,0,1-0.447,1-1v-5C29,51.447,28.553,51,28,51z M27,56h-4v-3h4
	V56z"/>
<path d="M37.933,55.519l-2.226-2.226l-1.414,1.414l3,3C37.48,57.896,37.735,58,38,58c0.015,0,0.03,0,0.045-0.001
	c0.281-0.013,0.543-0.143,0.724-0.358l5-6l-1.537-1.281L37.933,55.519z"/>
<path d="M49.933,55.519l-2.226-2.226l-1.414,1.414l3,3C49.48,57.896,49.735,58,50,58c0.015,0,0.03,0,0.045-0.001
	c0.281-0.013,0.543-0.143,0.724-0.358l5-6l-1.537-1.281L49.933,55.519z"/>
</svg>
