<?xml version="1.0" encoding="iso-8859-1"?>
<!-- Generator: Adobe Illustrator 23.0.1, SVG Export Plug-In . SVG Version: 6.00 Build 0)  -->
<svg version="1.1" id="Layer_1_1_" xmlns="http://www.w3.org/2000/svg" xmlns:xlink="http://www.w3.org/1999/xlink" x="0px" y="0px"
	 viewBox="0 0 64 64" style="enable-background:new 0 0 64 64;" xml:space="preserve">
<path d="M56,40.10529V12c0-2.75684-2.24316-5-5-5h-2V5c0-1.6543-1.3457-3-3-3s-3,1.3457-3,3v2h-5V5c0-1.6543-1.3457-3-3-3
	s-3,1.3457-3,3v2h-6V5c0-1.6543-1.3457-3-3-3s-3,1.3457-3,3v2h-5V5c0-1.6543-1.3457-3-3-3S9,3.3457,9,5v2H7
	c-2.75684,0-5,2.24316-5,5v40c0,2.75684,2.24316,5,5,5h33.62347C42.70215,60.58081,46.56964,63,51,63c6.61719,0,12-5.38281,12-12
	C63,46.16858,60.12439,42.00592,56,40.10529z M45,5c0-0.55176,0.44824-1,1-1s1,0.44824,1,1v6c0,0.55176-0.44824,1-1,1
	s-1-0.44824-1-1V5z M34,5c0-0.55176,0.44824-1,1-1s1,0.44824,1,1v6c0,0.55176-0.44824,1-1,1s-1-0.44824-1-1V5z M22,5
	c0-0.55176,0.44824-1,1-1s1,0.44824,1,1v6c0,0.55176-0.44824,1-1,1s-1-0.44824-1-1V5z M11,5c0-0.55176,0.44824-1,1-1s1,0.44824,1,1
	v6c0,0.55176-0.44824,1-1,1s-1-0.44824-1-1V5z M7,9h2v2c0,1.6543,1.3457,3,3,3s3-1.3457,3-3V9h5v2c0,1.6543,1.3457,3,3,3
	s3-1.3457,3-3V9h6v2c0,1.6543,1.3457,3,3,3s3-1.3457,3-3V9h5v2c0,1.6543,1.3457,3,3,3s3-1.3457,3-3V9h2c1.6543,0,3,1.3457,3,3v5H4
	v-5C4,10.3457,5.3457,9,7,9z M7,55c-1.6543,0-3-1.3457-3-3V19h50v20.39484C53.03918,39.14618,52.03754,39,51,39
	c-0.6828,0-1.34808,0.07056-2,0.1806V34c0-0.55273-0.44727-1-1-1h-6c-0.55273,0-1,0.44727-1,1v6c0,0.55273,0.44727,1,1,1h2.38086
	C41.14172,43.15106,39,46.82843,39,51c0,1.40411,0.25494,2.74664,0.70001,4H7z M47,39h-4v-4h4V39z M51,61
	c-5.51367,0-10-4.48633-10-10s4.48633-10,10-10s10,4.48633,10,10S56.51367,61,51,61z"/>
<path d="M52,49.2774V43h-2v6.2774c-0.59528,0.34644-1,0.98413-1,1.7226c0,0.10126,0.01526,0.19836,0.02979,0.29553L45.375,54.21875
	l1.25,1.5625l3.65161-2.92133C50.50153,52.94751,50.74414,53,51,53c1.10455,0,2-0.89545,2-2
	C53,50.26154,52.59528,49.62384,52,49.2774z"/>
<path d="M15,22H9c-0.55273,0-1,0.44727-1,1v6c0,0.55273,0.44727,1,1,1h6c0.55273,0,1-0.44727,1-1v-6C16,22.44727,15.55273,22,15,22z
	 M14,28h-4v-4h4V28z"/>
<path d="M26,22h-6c-0.55273,0-1,0.44727-1,1v6c0,0.55273,0.44727,1,1,1h6c0.55273,0,1-0.44727,1-1v-6C27,22.44727,26.55273,22,26,22
	z M25,28h-4v-4h4V28z"/>
<path d="M37,22h-6c-0.55273,0-1,0.44727-1,1v6c0,0.55273,0.44727,1,1,1h6c0.55273,0,1-0.44727,1-1v-6C38,22.44727,37.55273,22,37,22
	z M36,28h-4v-4h4V28z"/>
<path d="M42,30h6c0.55273,0,1-0.44727,1-1v-6c0-0.55273-0.44727-1-1-1h-6c-0.55273,0-1,0.44727-1,1v6C41,29.55273,41.44727,30,42,30
	z M43,24h4v4h-4V24z"/>
<path d="M15,33H9c-0.55273,0-1,0.44727-1,1v6c0,0.55273,0.44727,1,1,1h6c0.55273,0,1-0.44727,1-1v-6C16,33.44727,15.55273,33,15,33z
	 M14,39h-4v-4h4V39z"/>
<path d="M26,33h-6c-0.55273,0-1,0.44727-1,1v6c0,0.55273,0.44727,1,1,1h6c0.55273,0,1-0.44727,1-1v-6C27,33.44727,26.55273,33,26,33
	z M25,39h-4v-4h4V39z"/>
<path d="M37,33h-6c-0.55273,0-1,0.44727-1,1v6c0,0.55273,0.44727,1,1,1h6c0.55273,0,1-0.44727,1-1v-6C38,33.44727,37.55273,33,37,33
	z M36,39h-4v-4h4V39z"/>
<path d="M15,44H9c-0.55273,0-1,0.44727-1,1v6c0,0.55273,0.44727,1,1,1h6c0.55273,0,1-0.44727,1-1v-6C16,44.44727,15.55273,44,15,44z
	 M14,50h-4v-4h4V50z"/>
<path d="M26,44h-6c-0.55273,0-1,0.44727-1,1v6c0,0.55273,0.44727,1,1,1h6c0.55273,0,1-0.44727,1-1v-6C27,44.44727,26.55273,44,26,44
	z M25,50h-4v-4h4V50z"/>
<path d="M37,44h-6c-0.55273,0-1,0.44727-1,1v6c0,0.55273,0.44727,1,1,1h6c0.55273,0,1-0.44727,1-1v-6C38,44.44727,37.55273,44,37,44
	z M36,50h-4v-4h4V50z"/>
</svg>
