<?xml version="1.0" encoding="UTF-8"?>
<svg id="Layer_2" data-name="Layer 2" xmlns="http://www.w3.org/2000/svg" viewBox="0 0 64 64">
  <path d="M51.8,20.7c-.03-.27-.09-.54-.15-.8,0-.03,0-.06-.02-.09,0-.01,0-.03-.01-.04l-.03-.11s0,0,0,0c0-.01,0-.02,0-.04-.33-1.15-.94-2.21-1.74-3.06-.03-.03-.06-.06-.09-.1-.05-.05-.09-.1-.12-.12,0,0-.01-.01-.02-.02h0c-.14-.14-.29-.25-.44-.38-.09-.07-.17-.15-.26-.22-.17-.13-.35-.24-.52-.35-.08-.05-.16-.12-.25-.17-.18-.1-.37-.19-.56-.28-.09-.04-.18-.1-.27-.14-.28-.12-.58-.22-.87-.31,0,0-.01,0-.02,0,0,0-.02,0-.03,0,0,0-.05-.01-.08-.02,0,0-.02,0-.02,0h0c-1.2-.31-2.47-.31-3.68,0,0,0-.02,0-.03,0-.04,.01-.12,.03-.13,.04-1.2,.33-2.31,.98-3.2,1.85-.02,.02-.03,.03-.05,.05-.02,.02-.04,.04-.06,.06-.87,.89-1.51,2-1.85,3.2,0,.02-.01,.04-.02,.06-.01,.03-.02,.06-.03,.09-.15,.6-.23,1.22-.23,1.84s.08,1.24,.23,1.84c0,.03,.02,.06,.03,.09,0,.02,.01,.05,.02,.07,.33,1.2,.97,2.31,1.85,3.2,.02,.02,.04,.03,.05,.05,.02,.02,.04,.04,.06,.06,.89,.87,2,1.51,3.2,1.85,.02,0,.04,.01,.06,.02,.03,.01,.06,.02,.09,.03,.6,.15,1.22,.23,1.84,.23s1.24-.08,1.84-.23c.07-.02,.14-.04,.16-.04,.01,0,.02,0,.04,0,.17-.05,.34-.12,.5-.18,.12-.04,.24-.08,.35-.12,.18-.07,.34-.17,.51-.25,.1-.05,.21-.1,.32-.16,.18-.1,.35-.22,.52-.34,.08-.06,.17-.11,.26-.17,.25-.19,.48-.39,.71-.61,0,0,0,0,.01-.01,0,0,.01-.01,.02-.02,0,0,.06-.06,.08-.08,0,0,0,0,0,0,0,0,0,0,0,0,.21-.22,.41-.45,.6-.69,.04-.06,.08-.12,.12-.18,.14-.19,.27-.38,.39-.58,.04-.06,.07-.13,.1-.2,.11-.2,.22-.41,.31-.62,.04-.09,.06-.17,.1-.26,.06-.15,.12-.3,.17-.46,.02-.06,.04-.12,.05-.19,0,0,0-.01,0-.02,0,0,0,0,0,0,0,0,0,0,0,0,.02-.05,.03-.11,.04-.16,.15-.6,.23-1.22,.23-1.84v-.07c0-.2-.02-.4-.04-.6,0-.09,0-.18-.02-.27Zm-8.73,6.21s-.03,0-.04,0c-.02,0-.05-.02-.07-.02-.88-.24-1.69-.71-2.34-1.35-.01-.01-.03-.03-.04-.04-.01-.02-.03-.03-.04-.05-.64-.65-1.11-1.46-1.35-2.33,0-.02-.01-.04-.02-.07,0-.02,0-.03-.01-.05-.11-.44-.17-.9-.17-1.35s.06-.91,.17-1.35c0-.01,0-.03,0-.04,0-.02,.02-.05,.02-.07,.25-.88,.71-1.69,1.35-2.34,.01-.01,.02-.02,.03-.04,.02-.01,.03-.03,.05-.05,.11-.11,.23-.21,.35-.3,.06-.05,.12-.1,.18-.15,.12-.09,.24-.16,.37-.24,.07-.04,.13-.09,.2-.13,.11-.06,.23-.12,.34-.17,.09-.04,.17-.09,.26-.13,.1-.04,.21-.07,.31-.11,.11-.04,.22-.08,.33-.11l.1-.03c.89-.23,1.82-.22,2.71,0,.02,0,.03,0,.05,.01,.02,0,.04,.01,.06,.02,.87,.24,1.68,.71,2.34,1.35,0,0,.08,.08,.09,.09,.64,.65,1.11,1.45,1.35,2.33,0,.02,.01,.04,.02,.07,0,.02,0,.03,.01,.05,.11,.44,.17,.9,.17,1.35s-.06,.91-.17,1.35c0,.02,0,.03-.01,.05,0,.02-.01,.04-.02,.07-.25,.88-.71,1.69-1.35,2.34-.01,.02-.03,.03-.04,.05-.01,.01-.03,.03-.04,.04-.66,.64-1.46,1.11-2.33,1.35-.02,0-.1,.03-.12,.03-.88,.22-1.82,.22-2.71,0Z"/>
  <path d="M57.43,18.87h-2.47s-.02-.06-.03-.1l2.14-1.23c.48-.28,.64-.89,.37-1.37l-1.77-3.07c-.28-.48-.89-.64-1.37-.37l-2.14,1.24s-.05-.05-.07-.07l1.24-2.14c.13-.23,.17-.5,.1-.76-.07-.26-.24-.47-.47-.61l-3.07-1.77c-.23-.13-.5-.17-.76-.1-.26,.07-.47,.24-.61,.47l-1.23,2.14s-.07-.02-.1-.03v-2.47c0-.55-.45-1-1-1h-3.54c-.55,0-1,.45-1,1v2.47s-.07,.02-.1,.03l-1.23-2.13c-.28-.48-.89-.64-1.37-.37l-3.07,1.77c-.23,.13-.4,.35-.47,.61s-.03,.53,.1,.76l1.24,2.14s-.05,.05-.07,.07l-2.14-1.24c-.23-.13-.5-.17-.76-.1-.26,.07-.47,.24-.61,.47l-1.77,3.07c-.28,.48-.11,1.09,.37,1.37l2.13,1.23s-.02,.07-.03,.1h-2.47c-.55,0-1,.45-1,1v3.55c0,.55,.45,1,1,1h2.47s.02,.07,.03,.1l-2.14,1.23c-.23,.13-.4,.35-.47,.61-.07,.26-.03,.53,.1,.76l1.77,3.07c.19,.32,.52,.5,.87,.5,.17,0,.34-.04,.5-.13l2.14-1.24s.05,.05,.07,.07l-1.24,2.14c-.28,.48-.11,1.09,.37,1.37l3.07,1.77c.15,.09,.33,.13,.5,.13,.09,0,.17-.01,.26-.03,.26-.07,.47-.24,.61-.47l1.23-2.14s.06,.02,.1,.03v2.47c0,.55,.45,1,1,1h3.54c.55,0,1-.45,1-1v-2.47s.07-.02,.1-.03l1.24,2.14c.13,.23,.35,.4,.61,.47,.08,.02,.17,.03,.26,.03,.17,0,.35-.05,.5-.13l3.07-1.77c.48-.28,.64-.89,.37-1.37l-1.24-2.14s.05-.05,.07-.07l2.14,1.23c.16,.09,.33,.13,.5,.13,.35,0,.68-.18,.87-.5l1.77-3.07c.13-.23,.17-.5,.1-.76-.07-.26-.24-.48-.47-.61l-2.14-1.24s.02-.07,.03-.1h2.47c.55,0,1-.45,1-1v-3.55c0-.55-.45-1-1-1Zm-1,3.55h-2.27s-.07,.02-.11,.02c-.07,0-.13,.02-.2,.04-.06,.02-.12,.05-.17,.08-.05,.03-.1,.06-.15,.1-.05,.04-.09,.09-.14,.14-.04,.05-.07,.1-.1,.15-.03,.06-.05,.12-.07,.19-.01,.04-.03,.06-.04,.1-.09,.48-.21,.95-.38,1.41-.01,.04,0,.07-.02,.11-.02,.07-.03,.13-.03,.2,0,.06,0,.12,.01,.19,.01,.06,.02,.12,.05,.19,.02,.06,.05,.11,.08,.17,.03,.06,.07,.11,.11,.15,.04,.05,.09,.09,.15,.13,.03,.02,.05,.05,.08,.07l1.96,1.13-.77,1.34-1.97-1.13s-.07-.02-.11-.04c-.06-.03-.12-.05-.19-.06-.06-.01-.12-.02-.19-.02-.06,0-.13,0-.19,.01-.06,.01-.12,.03-.18,.05-.06,.02-.12,.05-.17,.08-.06,.04-.11,.08-.16,.12-.03,.03-.06,.04-.09,.07-.31,.37-.66,.72-1.03,1.03-.03,.02-.04,.06-.07,.09-.05,.05-.09,.1-.12,.16-.03,.05-.06,.11-.08,.17-.02,.06-.04,.12-.05,.18-.01,.06-.01,.12-.01,.19,0,.06,0,.12,.02,.19,.01,.07,.04,.13,.06,.19,.02,.03,.02,.07,.04,.1l1.14,1.97-1.34,.77-1.13-1.96s-.05-.05-.07-.08c-.04-.06-.08-.11-.13-.15-.05-.04-.09-.08-.15-.11-.06-.03-.11-.06-.18-.09-.06-.02-.11-.03-.17-.04-.07-.01-.13-.02-.2-.01-.07,0-.13,.01-.2,.03-.04,0-.07,0-.11,.02-.45,.16-.92,.29-1.41,.38-.04,0-.07,.03-.1,.04-.07,.02-.13,.04-.19,.07-.06,.03-.11,.06-.15,.1-.05,.04-.09,.08-.14,.13-.04,.05-.07,.1-.11,.16-.03,.06-.06,.11-.08,.17-.02,.06-.03,.13-.04,.2,0,.04-.02,.07-.02,.11v2.27h-1.54v-2.27s-.02-.07-.02-.11c0-.07-.02-.13-.04-.2-.02-.06-.04-.12-.08-.17-.03-.06-.06-.11-.11-.16-.04-.05-.09-.09-.14-.13-.05-.04-.1-.07-.16-.11-.06-.03-.12-.05-.18-.07-.04-.01-.07-.03-.1-.04-.48-.09-.95-.21-1.4-.37-.04-.01-.07,0-.11-.02-.07-.02-.13-.03-.2-.03-.06,0-.12,0-.18,.01-.07,.01-.13,.02-.19,.05-.06,.02-.11,.05-.17,.08-.06,.03-.11,.07-.15,.11-.05,.04-.09,.09-.13,.15-.02,.03-.06,.05-.07,.08l-1.13,1.97-1.34-.77,1.13-1.97s.02-.07,.04-.1c.03-.06,.05-.12,.06-.19,.01-.06,.02-.12,.02-.19,0-.06,0-.12-.01-.19-.01-.06-.03-.12-.05-.18-.02-.06-.05-.11-.08-.17-.04-.06-.08-.11-.12-.16-.03-.03-.04-.06-.07-.09-.37-.31-.72-.66-1.03-1.03-.03-.03-.06-.04-.09-.07-.05-.05-.1-.09-.15-.12-.06-.03-.11-.06-.17-.08-.06-.02-.12-.04-.18-.05-.06-.01-.12-.01-.19-.01-.06,0-.13,0-.19,.02-.06,.01-.12,.04-.19,.06-.03,.01-.07,.02-.1,.04l-1.96,1.13-.77-1.34,1.96-1.13s.05-.05,.08-.07c.05-.04,.1-.08,.15-.13,.04-.05,.08-.1,.11-.15,.03-.05,.06-.11,.08-.17,.02-.06,.04-.12,.05-.19,.01-.06,.01-.12,.01-.19,0-.07-.01-.13-.03-.2,0-.04,0-.07-.02-.11-.16-.45-.29-.92-.38-1.41,0-.04-.03-.07-.04-.1-.02-.06-.04-.12-.07-.18-.03-.06-.07-.12-.11-.17-.04-.04-.07-.08-.11-.12-.06-.05-.12-.09-.18-.12-.05-.02-.09-.05-.14-.06-.07-.02-.14-.04-.22-.04-.03,0-.06-.02-.1-.02h-2.27v-1.55h2.27s0,0,0,0c0,0,0,0,0,0,.13,0,.25-.03,.37-.07,.04-.02,.07-.04,.11-.06,.07-.04,.14-.08,.2-.13,.04-.03,.06-.07,.09-.11,.05-.06,.09-.12,.12-.18,.02-.05,.04-.09,.05-.14,.01-.04,.04-.08,.04-.12,.09-.49,.21-.96,.37-1.41,.01-.04,0-.07,.02-.11,.02-.07,.03-.13,.03-.2,0-.06,0-.12-.01-.18-.01-.06-.02-.13-.05-.19-.02-.06-.05-.11-.08-.17-.03-.06-.07-.11-.11-.15-.04-.05-.09-.09-.15-.13-.03-.02-.05-.05-.08-.07l-1.96-1.13,.77-1.34,1.96,1.13s.05,.01,.08,.03c.07,.03,.14,.06,.21,.07,.05,.01,.09,.02,.14,.02,.02,0,.05,.01,.07,.01,.04,0,.08-.02,.12-.02,.08,0,.15-.02,.22-.05,.06-.02,.11-.05,.16-.08,.07-.04,.13-.09,.19-.14,.03-.02,.06-.03,.08-.06,.31-.37,.66-.72,1.03-1.03,.03-.02,.04-.06,.07-.09,.05-.05,.09-.1,.12-.16,.03-.05,.06-.11,.08-.17,.02-.06,.04-.12,.05-.19,.01-.06,.01-.12,.01-.18,0-.06,0-.13-.02-.19-.01-.06-.04-.12-.06-.19-.01-.03-.02-.07-.04-.1l-1.13-1.96,1.34-.77,1.13,1.96s.03,.03,.04,.04c.05,.08,.11,.15,.18,.21,.02,.02,.04,.04,.06,.05,.09,.07,.2,.12,.31,.15,.02,0,.05,0,.07,.01,.07,.01,.13,.03,.2,.03,.02,0,.05-.01,.07-.01,.05,0,.09-.01,.14-.02,.04,0,.09,0,.13-.02,.45-.16,.92-.29,1.41-.37,.04,0,.07-.03,.1-.04,.07-.02,.13-.04,.18-.07,.06-.03,.11-.07,.16-.11,.05-.04,.09-.08,.14-.13,.04-.05,.07-.1,.11-.16,.03-.06,.06-.11,.08-.17,.02-.06,.03-.13,.04-.2,0-.04,.02-.07,.02-.11v-2.27h1.54v2.27s.02,.07,.02,.11c0,.07,.02,.13,.04,.2,.02,.06,.04,.12,.08,.17,.03,.06,.06,.11,.11,.16,.04,.05,.09,.09,.14,.13,.05,.04,.1,.07,.16,.11,.06,.03,.12,.05,.19,.07,.04,.01,.07,.03,.1,.04,.48,.09,.96,.21,1.41,.38,.04,.02,.09,.01,.13,.02,.05,.01,.09,.02,.14,.02,.02,0,.05,.01,.07,.01,.07,0,.14-.02,.2-.03,.02,0,.04,0,.07-.01,.11-.03,.22-.08,.32-.15,.02-.01,.03-.03,.05-.05,.07-.06,.14-.13,.19-.22,.01-.02,.03-.02,.04-.04l1.13-1.96,1.34,.77-1.13,1.97s-.02,.07-.04,.1c-.03,.06-.05,.12-.06,.19-.01,.06-.02,.13-.02,.19,0,.06,0,.12,.01,.18,.01,.06,.03,.12,.05,.19,.02,.06,.05,.11,.08,.17,.04,.06,.08,.11,.12,.16,.03,.03,.04,.06,.07,.09,.37,.31,.72,.66,1.03,1.03,.02,.03,.05,.04,.08,.06,.06,.06,.12,.11,.19,.15,.05,.03,.1,.06,.15,.08,.07,.03,.15,.04,.22,.05,.04,0,.08,.02,.11,.02,.02,0,.04-.01,.07-.01,.05,0,.09-.01,.14-.02,.07-.02,.15-.04,.22-.07,.02-.01,.05-.01,.08-.03l1.97-1.14,.77,1.34-1.96,1.13s-.05,.05-.08,.07c-.05,.04-.1,.08-.15,.13-.04,.05-.08,.1-.11,.15-.03,.05-.06,.11-.08,.17-.02,.06-.04,.12-.05,.19,0,.06-.01,.12-.01,.18,0,.07,.01,.13,.03,.2,0,.04,0,.07,.02,.11,.16,.45,.29,.92,.37,1.4,0,.04,.03,.08,.04,.12,.02,.05,.03,.1,.05,.15,.03,.07,.07,.12,.12,.18,.03,.04,.06,.08,.09,.11,.06,.05,.12,.09,.19,.13,.04,.02,.07,.05,.11,.06,.11,.05,.24,.07,.36,.07,0,0,0,0,0,0,0,0,0,0,0,0h2.27v1.55Z"/>
  <path d="M52.99,47.45l-15.22-.52-2.54-2.27c.86-.09,1.75-.47,2.47-1.35,1.88-2.3-.23-5.43-.32-5.56-.05-.07-.11-.14-.18-.2l-9.27-7.75c-.17-.14-.38-.22-.6-.23l-10.81-.41,.05-1.1c.01-.27-.08-.52-.26-.72-.18-.2-.43-.31-.69-.32l-8.25-.37c-.56,0-1.02,.4-1.04,.95l-.75,16.67c-.01,.27,.08,.52,.26,.72,.18,.2,.43,.31,.69,.32l8.25,.37s.03,0,.05,0c.53,0,.97-.42,1-.96l.04-.98,3.3,.15,13.06,11.33c.17,.15,.39,.23,.61,.24l20.2,.91c.06,0,.11,0,.17,0,1.62,0,3.91-1,4.04-3.85,.1-2.3-1.34-4.86-4.25-5.07ZM7.61,43.34l.66-14.67,6.25,.28-.66,14.67-6.25-.28Zm45.5,11.02l-19.85-.89-13.06-11.33c-.17-.15-.39-.23-.61-.24l-3.65-.16,.48-10.59,10.48,.4,8.88,7.43c.25,.42,1.16,2.09,.36,3.07-.88,1.08-2.25,.53-2.54,.39l-3.63-2.44c-.44-.29-1.02-.2-1.35,.22-.32,.42-.27,1.01,.12,1.36l7.95,7.1c.17,.16,.4,.25,.63,.25l15.54,.54c2.03,.15,2.39,2.2,2.35,2.98-.08,1.85-1.65,1.95-2.12,1.93Z"/>
</svg>