<?xml version="1.0" encoding="UTF-8"?><svg id="Competences_Toolbox" xmlns="http://www.w3.org/2000/svg" viewBox="0 0 511.84 510.75"><g id="Generative_Object"><path d="M247.18,182.42c5.58-.85,58.79-.65,62.42.6,3.36,1.15,6.65,6.38,6.3,9.9-.29,2.92-.73,1.16-.6,6,.05,2.02-.32,14.27.3,14.71.37.26,8.19.17,9,0,6.61-1.41,11.97-4.98,21.01-3,2,.44,3.81,2.91,4.2,3,5.14,1.21,15.25-1.2,20.41,0,1.69.4,6.94,5.53,9.3,6.3-.07,1.58-28.56,0-29.41,1.2-.14.2-.12,3.61.3,3.9,1.86,1.32,29.79-1.62,30.91.9v118.24c-.93.7-1.8,2.12-2.7,2.7-1.67,1.07-9.8,2.29-12,2.4-61.23,3.12-126.96-3.03-188.46-1.2l-4.5-2.7-.6-120.04,31.21-1.2v-3l-29.41-1.2c8.4-10.05,18.87-4.49,29.11-6.3.4-.07,2.03-2.35,2.4-2.4,4.22-.53,14.81-1.43,18.61-.6,1.25.27,3.93,2.94,4.2,3,13.56,3.11,9.71-5.74,9.9-15.31.07-3.38-.6-3.95-.6-4.8,0-6.52,1.75-10.05,8.7-11.1Z" fill="#372948"/><path d="M247.78,194.43c2.23-.4,3.97,1.19,4.8,1.2,13.92.17,42.31-2.5,54.02-.6.18.03,3.24,1.33,3.3,1.5-2.51,4.45-.63,11-1.2,16.21l-62.72.9c-.62-.44-.32-13.33-.3-15.31,0-.3-2.54-3.07,2.1-3.9Z" fill="#f3f1f1"/><path d="M229.78,220.24h94.83c1.04.46,1.21,3.24.9,3.9-2.02,4.34-84.99-1.46-95.73.9v-4.8Z" fill="#f3f3f3"/><polygon points="206.37 216.03 226.78 216.03 227.68 234.34 206.37 235.24 206.37 216.03" fill="#f5f2f3"/><path d="M208.17,223.84c.7-.47,16.11-.47,16.81,0,1.04.7-.21,3.33-1.2,3.6-.9.24-21.69.52-15.61-3.6Z" fill="#201434"/><polygon points="327.61 216.03 348.02 216.03 348.92 234.34 327.01 235.24 327.61 216.03" fill="#f4f4f4"/><path d="M329.41,223.24c3.07,1.6,18.08-1.98,17.11,2.7-.56,2.7-23.57,2.69-17.11-2.7Z" fill="#251436"/><path d="M269.39,247.24c9.59-1.11,20.34.64,28.81,5.4,3.49,1.97,19.72,16.37,19.51,19.51-.03.47-2.15.99-1.8,3.6,1.92,14.46,4.57,20.14-3.6,34.21-15.12,26.04-53.68,29.02-71.42,4.2-3.9-5.45-4.11-10.3-6.6-15.01-.92-1.74-6.15-5.54-6.6-7.8-1.21-5.97,4.56-6.18,6-9,.53-1.05.85-6.47,1.8-8.4,6.64-13.57,18.07-24.88,33.91-26.71Z" fill="#f7f7f7"/><path d="M306.9,265.85c-.37.1-.68,0-.6.6-1.53-1.54-6.22-6.38-8.1-6l-28.81,30.61-13.2-12-12.3,12.3c-.31,2.12,22.43,24.58,26.11,27.31l42.91-42.61h.6c-3.14,12.12.57,21.21-7.8,33.31-22.93,33.18-75.35,10.86-66.02-29.41,6.33-27.34,39.71-32.69,60.92-20.71,1.76.99,4.68,5.02,6.3,6.6Z" fill="#fc3a2d"/><path d="M309.3,268.25s-.7-.09-.6.6c-.76-.91-1.58-1.58-2.4-2.4-.08-.6.23-.5.6-.6,1.58-.44,2.85-2.21,4.2-.3-1.03.63-1.19,1.81-1.8,2.7Z" fill="#1e0d22"/><path d="M313.51,276.05h-.6c-.74-2.22-2.74-5.45-4.2-7.2-.1-.69.58-.57.6-.6,2.24,2.73,5.13,4.24,4.2,7.8Z" fill="#817083"/><path d="M306.3,266.45c.82.82,1.64,1.49,2.4,2.4,1.46,1.76,3.46,4.98,4.2,7.2l-42.91,42.61c-3.68-2.73-26.42-25.19-26.11-27.31l12.3-12.3,13.2,12,28.81-30.61c1.88-.37,6.57,4.46,8.1,6Z" fill="#f9f9f9"/><path d="M300,267.65c2.38-.52,6.16,4.17,7.5,6.3l-37.51,37.51c-2.04-2.91-19.85-18.71-20.11-20.11-.34-1.85,4.97-6.72,6.9-6.3,1.09.24,9.82,12.49,13.2,12.6,4.41-3.04,27.73-29.51,30.01-30.01Z" fill="#221136"/></g></svg>