<?xml version="1.0" encoding="UTF-8"?><svg id="a" xmlns="http://www.w3.org/2000/svg" viewBox="0 0 542.36 550.36"><rect x="-3242.92" y="-412.77" width="4107.39" height="1375.89" fill="none" stroke="#231f20" stroke-miterlimit="10" stroke-width="1"/><path d="M429.35,178.21h56.39v184.48l-25.57,2.4c-34.56,2.72-78.16,9.48-111.91,3.31-25.05-4.59-31.48-12.11-67.28-12.11-1.05,0-8.05-.04-14.14-.05v-162.11c95.41-6.26,114.12-47.98,107.03-132.56-.43-5.3,3.41-10.01,8.67-10.6,64.01-7.23,50.76,96.39,46.8,127.23" fill="#ffcec0" fill-rule="evenodd"/><path d="M485.74,178.21c-.66,19.29-5.15,55.56-52.75,56.01-9.29,17.1-23.68,30.98-44.9,37.99-4.55,1.51-9.45-.98-10.96-5.56-1.51-4.58.98-9.51,5.54-11.03,16.58-5.49,27.84-16.34,35.11-29.73,7.64-14.09,11.07-31.02,11.69-47.69" fill="#fdb0a0" fill-rule="evenodd"/><path d="M457.25,178.21h47.22c13.1,0,23.81,10.77,23.81,23.92h0c0,13.15-10.71,23.92-23.81,23.92h-47.22c-13.07,0-23.81-10.77-23.81-23.92h0c0-13.15,10.74-23.92,23.81-23.92" fill="#fdb0a0" fill-rule="evenodd"/><path d="M457.25,178.21h47.22c13.1,0,23.81,10.77,23.81,23.92h-94.83c0-13.15,10.74-23.92,23.81-23.92" fill="#ffcec0" fill-rule="evenodd"/><path d="M257.53,369.29h19.46c7.26,0,13.22-5.98,13.22-13.28v-161.61c0-7.3-5.96-13.28-13.22-13.28h-38.91c-7.26,0-13.22,5.98-13.22,13.28v161.61c0,7.3,5.96,13.28,13.22,13.28" fill="#2a92fa" fill-rule="evenodd"/><path d="M249.42,181.11h-11.33c-7.27,0-13.23,5.98-13.23,13.28v161.61c0,7.3,5.96,13.28,13.23,13.28h11.33c7.29,0,13.23-5.98,13.23-13.28v-161.61c0-7.3-5.94-13.28-13.23-13.28" fill="#4eb1fc" fill-rule="evenodd"/><path d="M448.01,226.05h62.95c13.09,0,23.8,10.77,23.8,23.92s-10.71,23.92-23.8,23.92h-62.95c-13.07,0-23.8-10.77-23.8-23.92s10.73-23.92,23.8-23.92" fill="#fdb0a0" fill-rule="evenodd"/><path d="M448.01,226.05h62.95c13.09,0,23.8,10.77,23.8,23.92h-110.55c0-13.15,10.73-23.92,23.8-23.92" fill="#ffcec0" fill-rule="evenodd"/><path d="M449.94,273.89h54.2c13.09,0,23.81,10.77,23.81,23.92s-10.71,23.92-23.81,23.92h-54.2c-13.09,0-23.8-10.77-23.8-23.92s10.71-23.92,23.8-23.92" fill="#fdb0a0" fill-rule="evenodd"/><path d="M449.94,273.89h54.2c13.09,0,23.81,10.77,23.81,23.92h-101.81c0-13.15,10.71-23.92,23.8-23.92" fill="#ffcec0" fill-rule="evenodd"/><path d="M460.15,321.74h33.55c11.85,0,21.56,9.76,21.56,21.68s-9.71,21.67-21.56,21.67h-33.55c-11.85,0-21.56-9.76-21.56-21.67s9.71-21.68,21.56-21.68" fill="#fdb0a0" fill-rule="evenodd"/><path d="M460.15,321.74h33.55c11.85,0,21.56,9.76,21.56,21.68h-76.66c0-11.93,9.71-21.68,21.56-21.68" fill="#ffcec0" fill-rule="evenodd"/><path d="M393.71,542.71c36.67,0,66.59-30.06,66.59-66.91s-29.92-66.91-66.59-66.91-66.59,30.06-66.59,66.91,29.92,66.91,66.59,66.91" fill="#99d100" fill-rule="evenodd"/><path d="M383.77,541.97c-32.04-4.82-56.63-32.61-56.63-66.17s24.59-61.35,56.63-66.17c32.07,4.83,56.65,32.61,56.65,66.17s-24.59,61.35-56.65,66.17" fill="#a8e304" fill-rule="evenodd"/><path d="M290.15,124.7V7.74h-60.71l-10.56,53.78-56.64,23.61-45.34-30.55-62.66,62.97,30.41,45.55-23.5,56.93-53.52,10.6v89.06l53.52,10.6,23.5,56.93-30.41,45.55,62.66,62.97,45.34-30.54,56.64,23.61,10.56,53.78h60.71v-116.91c-5.38.58-10.84.89-16.37.89-83.21,0-150.64-67.78-150.64-151.39s67.43-151.38,150.64-151.38c5.53,0,10.99.3,16.37.89" fill="#9cf" fill-rule="evenodd"/><path d="M258.16,124.61c.26-.03.49-.05.75-.07V7.75h-29.45l-10.55,53.77-75.97,31.67-38.56-26-50.12,50.37,30.4,45.55-23.5,56.93-53.52,10.6v89.06l53.52,10.6,23.5,56.93-30.4,45.56,50.12,50.36,38.56-25.99,75.97,31.66,10.55,53.78h29.45v-116.76c-.26-.03-.49-.06-.75-.08-5.13.53-10.35.82-15.62.82-83.21,0-150.64-67.79-150.64-151.39S159.33,123.8,242.54,123.8c5.26,0,10.48.28,15.62.82" fill="#b6dbff" fill-rule="evenodd"/><path d="M295.3,420c-1.63-1.45-3.74-2.14-5.9-1.91-5.2.57-10.45.85-15.61.85-78.86,0-143.03-64.48-143.03-143.74s64.16-143.75,143.03-143.75c5.16,0,10.4.29,15.61.85,2.16.23,4.27-.46,5.9-1.91,1.6-1.45,2.53-3.51,2.53-5.69V7.64c0-4.22-3.41-7.64-7.59-7.64h-60.73c-3.65,0-6.78,2.58-7.48,6.16l-9.75,49.78-49.16,20.49-41.96-28.28c-3.02-2.04-7.04-1.64-9.61.94l-62.7,63c-2.55,2.58-2.95,6.63-.93,9.67l28.15,42.17-20.39,49.39-49.53,9.82c-3.58.71-6.13,3.85-6.13,7.49v89.09c0,3.65,2.55,6.79,6.13,7.49l49.53,9.82,20.39,49.39-28.15,42.18c-2.02,3.03-1.63,7.07.93,9.66l62.7,63c2.55,2.58,6.6,2.97,9.61.95l41.96-28.28,49.16,20.48,9.75,49.79c.7,3.59,3.83,6.16,7.48,6.16h60.73c4.18,0,7.59-3.42,7.59-7.64v-117.03c0-2.17-.93-4.24-2.53-5.69M282.62,535.07v-101.08c-2.97.16-5.9.25-8.82.25-87.25,0-158.26-71.34-158.26-159.04s71.01-159.03,158.26-159.03c2.93,0,5.85.08,8.82.25V15.28h-46.89l-9.34,47.64c-.49,2.5-2.18,4.6-4.55,5.58l-56.66,23.63c-2.37.98-5.04.71-7.15-.71l-40.15-27.06-53.85,54.11,26.94,40.35c1.42,2.12,1.67,4.81.7,7.18l-23.5,56.95c-.98,2.37-3.07,4.08-5.55,4.58l-47.4,9.38v76.53l47.4,9.39c2.48.49,4.57,2.21,5.55,4.57l23.5,56.95c.98,2.37.72,5.06-.7,7.18l-26.94,40.36,53.85,54.11,40.15-27.06c2.11-1.43,4.78-1.7,7.15-.71l56.66,23.62c2.37.98,4.06,3.08,4.55,5.59l9.34,47.63h46.89ZM541.74,256.33c.42-2.06.63-4.18.63-6.36,0-11.21-5.83-21.06-14.61-26.66,5.04-5.61,8.13-13.04,8.13-21.19,0-17.41-14.1-31.56-31.42-31.56h-66.49c3.6-30.13,8.31-88.69-17.16-114.7-9.89-10.1-23.04-14.3-39.11-12.49-9.43,1.06-16.19,9.34-15.4,18.83,6.62,78.94-11.57,110.26-71.73,121-3.72-5.84-10.19-9.74-17.58-9.74h-38.92c-11.47,0-20.81,9.38-20.81,20.92v161.6c0,11.55,9.34,20.93,20.81,20.93h38.92c8.48,0,15.77-5.12,19.02-12.44,2.28.18,4.41.41,6.41.68.46.06.93.12,1.37.18,3.39.49,6.41,1.08,9.27,1.75,4.13.97,7.92,2.1,11.89,3.29,6.39,1.92,12.96,3.88,21.95,5.53,10.5,1.92,21.81,2.63,33.46,2.63h.02c19.23,0,39.34-1.96,57.89-3.78,7.8-.76,15.16-1.47,22.2-2.04h33.21c16.09,0,29.17-13.15,29.17-29.33,0-6.34-2-12.21-5.41-17.02,10.22-4.82,17.46-15.02,18.07-26.97.02-.53.05-1.07.05-1.62,0-8.07-3.04-15.45-8.03-21.04,7.2-4.49,12.45-11.83,14.21-20.43M504.14,314.09c8.94,0,16.21-7.3,16.21-16.28s-7.27-16.27-16.21-16.27h-54.2c-8.94,0-16.21,7.3-16.21,16.27s7.27,16.28,16.21,16.28h54.2ZM527.08,251.63c.05-.54.07-1.1.07-1.66s-.02-1.12-.07-1.66c-.86-8.2-7.76-14.62-16.12-14.62h-62.93c-8.94,0-16.19,7.3-16.19,16.28s7.25,16.27,16.19,16.27h62.93c8.36,0,15.26-6.41,16.12-14.61M504.46,185.86c8.94,0,16.21,7.3,16.21,16.27s-7.27,16.27-16.21,16.27h-47.21c-8.92,0-16.19-7.3-16.19-16.27s7.27-16.27,16.19-16.27h47.21ZM369.19,155.18c12.19-21.12,15.98-50.19,12.28-94.25-.12-1.17.77-2.24,1.93-2.37,11.36-1.27,20.04,1.34,26.57,8.02,23.01,23.49,14.61,89.09,11.84,110.65v.1c-.02.17-.02.32-.05.5v.31c-.02.15,0,.29,0,.44,0,.13.02.25.02.37v.09c4.85,44.41-6.39,66.9-38.78,77.62-3.99,1.32-6.15,5.64-4.85,9.65,1.04,3.22,4.02,5.26,7.22,5.26.79,0,1.58-.12,2.39-.39,12.45-4.12,21.97-9.77,29.19-16.46,1.23,8.06,5.5,15.13,11.59,19.99-6.15,5.77-10.03,13.99-10.03,23.1,0,12.58,7.36,23.44,17.95,28.52-3.44,4.81-5.48,10.72-5.48,17.09,0,6,1.81,11.58,4.9,16.24-3.6.36-7.25.71-10.94,1.05-25.66,2.39-53.11,4.24-75.31.18-8.17-1.5-14.35-3.34-20.32-5.14-3.62-1.08-7.2-2.15-11.05-3.11-1.02-.26-2.09-.51-3.16-.75-.09-.03-.21-.05-.28-.06-3.92-.86-8.22-1.6-13.21-2.15-1.23-.14-2.48-.26-3.79-.37v-151.15c35.46-6.49,58.27-20.24,71.36-42.97M282.62,355.99c0,3.12-2.53,5.65-5.62,5.65h-38.92c-3.09,0-5.6-2.53-5.6-5.65v-161.6c0-3.11,2.51-5.64,5.6-5.64h38.92c3.09,0,5.62,2.53,5.62,5.64v161.6ZM493.69,357.45h-33.53c-7.69,0-13.96-6.3-13.96-14.03s6.27-14.03,13.96-14.03h33.53c7.71,0,13.98,6.29,13.98,14.03s-6.27,14.03-13.98,14.03M393.72,401.24c-40.9,0-74.2,33.44-74.2,74.55s33.3,74.57,74.2,74.57,74.2-33.44,74.2-74.57-33.28-74.55-74.2-74.55M393.72,535.07c32.53,0,58.99-26.59,58.99-59.27s-26.45-59.27-58.99-59.27-58.99,26.59-58.99,59.27,26.45,59.27,58.99,59.27M426.25,450.06c2.95,2.98,2.95,7.82,0,10.81l-40.48,40.67c-1.44,1.44-3.39,2.24-5.39,2.24-.33,0-.67-.03-1-.06-2.35-.31-4.41-1.71-5.57-3.76l-13.84-24.05c-2.09-3.66-.84-8.34,2.79-10.45,3.65-2.11,8.29-.85,10.4,2.8l8.85,15.43,33.49-33.63c2.95-2.99,7.78-2.99,10.75,0" fill-rule="evenodd"/></svg>